<svg width="40" height="40" viewBox="0 0 40 40" fill="none" xmlns="http://www.w3.org/2000/svg">
<rect width="40" height="40" rx="20" fill="#DBB0FC"/>
<path d="M12 8.78091H16.7171V11.7769H16.9402C17.344 10.7995 17.9283 9.99206 18.6932 9.35461C19.4582 8.71716 20.4993 8.39844 21.8167 8.39844C22.7304 8.39844 23.5591 8.56842 24.3028 8.9084C25.0677 9.24837 25.7158 9.76895 26.247 10.4701C26.7995 11.1713 27.2244 12.0638 27.5219 13.1474C27.8406 14.2311 28 15.5166 28 17.004C28 18.4914 27.8406 19.7769 27.5219 20.8606C27.2244 21.9443 26.7995 22.8367 26.247 23.5379C25.7158 24.2391 25.0677 24.7597 24.3028 25.0996C23.5591 25.4396 22.7304 25.6096 21.8167 25.6096C20.4993 25.6096 19.4582 25.3015 18.6932 24.6853C17.9283 24.0478 17.344 23.2298 16.9402 22.2311H16.7171V31.6016H12V8.78091ZM19.7769 21.9443C20.8393 21.9443 21.6574 21.6255 22.2311 20.9881C22.8048 20.3294 23.0916 19.4263 23.0916 18.2789V15.7291C23.0916 14.5817 22.8048 13.6893 22.2311 13.0518C21.6574 12.3931 20.8393 12.0638 19.7769 12.0638C18.9482 12.0638 18.2258 12.2656 17.6096 12.6694C17.0146 13.0731 16.7171 13.7105 16.7171 14.5817V19.4263C16.7171 20.2975 17.0146 20.935 17.6096 21.3387C18.2258 21.7424 18.9482 21.9443 19.7769 21.9443Z" fill="#7D08D9"/>
</svg>
