<svg width="187" height="64" viewBox="0 0 187 64" fill="none" xmlns="http://www.w3.org/2000/svg">
<rect width="187" height="64" rx="32" fill="#DEDEDE"/>
<path fill-rule="evenodd" clip-rule="evenodd" d="M45 21C45 20.4477 44.5523 20 44 20C43.4477 20 43 20.4477 43 21V31H33C32.4477 31 32 31.4477 32 32C32 32.5523 32.4477 33 33 33H43V43C43 43.5523 43.4477 44 44 44C44.5523 44 45 43.5523 45 43V33H55C55.5523 33 56 32.5523 56 32C56 31.4477 55.5523 31 55 31H45V21Z" fill="#131313"/>
<path d="M89.4141 22.9531V29.9844H83.25V32.6562H91.8281V34.1562H72.8438V32.6562H81.4219V29.9844H75.3047V22.9531H89.4141ZM77.1094 24.4297V28.5078H87.5859V24.4297H77.1094ZM89.4844 36.3359V42.8984H87.6328V37.8125H74.9531V36.3359H89.4844ZM112.641 33.5469V35.0703H93.5625V33.5469H102.188V31.3438H96.0469V26.2578H108.328V24.1016H95.9766V22.6016H110.18V27.6406H97.875V29.8672H110.625V31.3438H103.992V33.5469H112.641ZM110.297 36.6641V42.7109H108.445V38.1641H95.6953V36.6641H110.297ZM133.312 34.6719V36.2188H124.711V42.9453H122.906V36.2188H114.328V34.6719H133.312ZM124.734 26.1875C124.734 28.7891 128.367 31.0625 132.094 31.5781L131.414 33.0547C128.191 32.5625 125.156 30.9453 123.844 28.6719C122.508 30.9688 119.426 32.5625 116.203 33.0547L115.523 31.5781C119.227 31.0625 122.906 28.8125 122.906 26.1875V26.1641H116.18V24.6641H122.906V22.0625H124.711V24.6641H131.484V26.1641H124.734V26.1875ZM151.195 22.0625V30.5469H154.57V32.0938H151.195V42.8984H149.367V22.0625H151.195ZM145.805 24.3125C145.805 30.2188 143.039 35.5859 136.242 38.9375L135.211 37.4844C140.602 34.8008 143.531 30.793 143.953 25.8594H136.172V24.3125H145.805Z" fill="#131313"/>
</svg>
