<svg width="24" height="24" viewBox="0 0 24 24" fill="none" xmlns="http://www.w3.org/2000/svg">
<g clip-path="url(#clip0_203_4121)">
<path d="M10.6 13.4L7.4 10.2C7.21667 10.0167 6.98333 9.925 6.7 9.925C6.41667 9.925 6.18333 10.0167 6 10.2C5.81667 10.3833 5.725 10.6167 5.725 10.9C5.725 11.1833 5.81667 11.4167 6 11.6L9.9 15.5C10.1 15.7 10.3333 15.8 10.6 15.8C10.8667 15.8 11.1 15.7 11.3 15.5L18 8.8C18.1833 8.61667 18.275 8.38334 18.275 8.1C18.275 7.81667 18.1833 7.58333 18 7.4C17.8167 7.21667 17.5833 7.125 17.3 7.125C17.0167 7.125 16.7833 7.21667 16.6 7.4L10.6 13.4ZM2 24C1.45 24 0.979333 23.8043 0.588 23.413C0.196667 23.0217 0.000666667 22.5507 0 22V2C0 1.45 0.196 0.979334 0.588 0.588C0.98 0.196667 1.45067 0.000666667 2 0H22C22.55 0 23.021 0.196 23.413 0.588C23.805 0.98 24.0007 1.45067 24 2V22C24 22.55 23.8043 23.021 23.413 23.413C23.0217 23.805 22.5507 24.0007 22 24H2Z" fill="#7D08D9"/>
</g>
<defs>
<clipPath id="clip0_203_4121">
<rect width="24" height="24" fill="white"/>
</clipPath>
</defs>
</svg>
