<svg width="32" height="32" viewBox="0 0 32 32" fill="none" xmlns="http://www.w3.org/2000/svg">
<path d="M16.0005 17.8671L12.1112 21.7671C11.865 22.0115 11.5521 22.1337 11.1725 22.1337C10.793 22.1337 10.4801 22.0115 10.2339 21.7671C9.98941 21.5226 9.86719 21.2115 9.86719 20.8337C9.86719 20.4559 9.98941 20.1448 10.2339 19.9004L14.1339 16.0004L10.2339 12.1444C9.98941 11.8982 9.86719 11.5853 9.86719 11.2057C9.86719 10.8262 9.98941 10.5133 10.2339 10.2671C10.4783 10.0226 10.7894 9.90039 11.1672 9.90039C11.545 9.90039 11.8561 10.0226 12.1005 10.2671L16.0005 14.1671L19.8565 10.2671C20.1027 10.0226 20.4156 9.90039 20.7952 9.90039C21.1747 9.90039 21.4876 10.0226 21.7339 10.2671C22.0005 10.5337 22.1339 10.8506 22.1339 11.2177C22.1339 11.5848 22.0005 11.8902 21.7339 12.1337L17.8339 16.0004L21.7339 19.8897C21.9783 20.1359 22.1005 20.4488 22.1005 20.8284C22.1005 21.2079 21.9783 21.5208 21.7339 21.7671C21.4672 22.0337 21.1507 22.1671 20.7845 22.1671C20.4183 22.1671 20.1125 22.0337 19.8672 21.7671L16.0005 17.8671Z" fill="#787878"/>
</svg>
