<svg width="32" height="32" viewBox="0 0 32 32" fill="none" xmlns="http://www.w3.org/2000/svg">
<path d="M8.0013 25.3333L4.93464 28.4C4.51242 28.8222 4.02886 28.9169 3.48397 28.684C2.93908 28.4511 2.66708 28.0342 2.66797 27.4333V6.66667C2.66797 5.93333 2.9293 5.30578 3.45197 4.784C3.97464 4.26222 4.60219 4.00089 5.33464 4H26.668C27.4013 4 28.0293 4.26133 28.552 4.784C29.0746 5.30667 29.3355 5.93422 29.3346 6.66667V22.6667C29.3346 23.4 29.0738 24.028 28.552 24.5507C28.0302 25.0733 27.4022 25.3342 26.668 25.3333H8.0013ZM6.86797 22.6667H26.668V6.66667H5.33464V24.1667L6.86797 22.6667Z" fill="#131313"/>
<circle cx="10.6673" cy="14.6663" r="1.33333" fill="#131313"/>
<circle cx="16.0013" cy="14.6663" r="1.33333" fill="#131313"/>
<circle cx="21.3333" cy="14.6663" r="1.33333" fill="#131313"/>
</svg>
