<svg width="20" height="20" viewBox="0 0 20 20" fill="none" xmlns="http://www.w3.org/2000/svg">
<path d="M5.83399 17.5C5.37565 17.5 4.98343 17.3369 4.65732 17.0108C4.33121 16.6847 4.16788 16.2922 4.16732 15.8333V5C3.93121 5 3.73343 4.92 3.57399 4.76C3.41454 4.6 3.33454 4.40222 3.33399 4.16667C3.33343 3.93111 3.41343 3.73333 3.57399 3.57333C3.73454 3.41333 3.93232 3.33333 4.16732 3.33333H7.50065C7.50065 3.09722 7.58065 2.89944 7.74065 2.74C7.90065 2.58056 8.09843 2.50056 8.33399 2.5H11.6673C11.9034 2.5 12.1015 2.58 12.2615 2.74C12.4215 2.9 12.5012 3.09778 12.5007 3.33333H15.834C16.0701 3.33333 16.2682 3.41333 16.4282 3.57333C16.5882 3.73333 16.6679 3.93111 16.6673 4.16667C16.6668 4.40222 16.5868 4.60028 16.4273 4.76083C16.2679 4.92139 16.0701 5.00111 15.834 5V15.8333C15.834 16.2917 15.6709 16.6842 15.3448 17.0108C15.0187 17.3375 14.6262 17.5006 14.1673 17.5H5.83399ZM14.1673 5H5.83399V15.8333H14.1673V5ZM8.33399 14.1667C8.5701 14.1667 8.76815 14.0867 8.92815 13.9267C9.08815 13.7667 9.16788 13.5689 9.16732 13.3333V7.5C9.16732 7.26389 9.08732 7.06611 8.92732 6.90667C8.76732 6.74722 8.56954 6.66722 8.33399 6.66667C8.09843 6.66611 7.90065 6.74611 7.74065 6.90667C7.58065 7.06722 7.50065 7.265 7.50065 7.5V13.3333C7.50065 13.5694 7.58065 13.7675 7.74065 13.9275C7.90065 14.0875 8.09843 14.1672 8.33399 14.1667ZM11.6673 14.1667C11.9034 14.1667 12.1015 14.0867 12.2615 13.9267C12.4215 13.7667 12.5012 13.5689 12.5007 13.3333V7.5C12.5007 7.26389 12.4207 7.06611 12.2607 6.90667C12.1007 6.74722 11.9029 6.66722 11.6673 6.66667C11.4318 6.66611 11.234 6.74611 11.074 6.90667C10.914 7.06722 10.834 7.265 10.834 7.5V13.3333C10.834 13.5694 10.914 13.7675 11.074 13.9275C11.234 14.0875 11.4318 14.1672 11.6673 14.1667Z" fill="#D92108"/>
</svg>
