<svg width="20" height="20" viewBox="0 0 20 20" fill="none" xmlns="http://www.w3.org/2000/svg">
<g clip-path="url(#clip0_341_6461)">
<path d="M3.33268 19.9998C2.87435 19.9998 2.48213 19.8368 2.15602 19.5107C1.82991 19.1846 1.66657 18.7921 1.66602 18.3332C1.66546 17.8743 1.82879 17.4821 2.15602 17.1565C2.48324 16.8309 2.87546 16.6676 3.33268 16.6665H16.666C17.1244 16.6665 17.5169 16.8298 17.8435 17.1565C18.1702 17.4832 18.3332 17.8754 18.3327 18.3332C18.3321 18.7909 18.1691 19.1834 17.8435 19.5107C17.518 19.8379 17.1255 20.0009 16.666 19.9998H3.33268ZM4.99935 13.3332H6.16602L12.666 6.854L12.0619 6.24984L11.4785 5.6665L4.99935 12.1665V13.3332ZM3.33268 14.1665V11.8123C3.33268 11.7012 3.35352 11.5937 3.39518 11.4898C3.43685 11.3859 3.49935 11.2921 3.58268 11.2082L12.666 2.14567C12.8188 1.99289 12.996 1.87484 13.1977 1.7915C13.3994 1.70817 13.611 1.6665 13.8327 1.6665C14.0544 1.6665 14.2696 1.70817 14.4785 1.7915C14.6874 1.87484 14.8749 1.99984 15.041 2.1665L16.1868 3.33317C16.3535 3.48595 16.4749 3.6665 16.551 3.87484C16.6271 4.08317 16.6655 4.29845 16.666 4.52067C16.666 4.729 16.6277 4.934 16.551 5.13567C16.4743 5.33734 16.353 5.52123 16.1868 5.68734L7.12435 14.7498C7.04102 14.8332 6.94741 14.8957 6.84352 14.9373C6.73963 14.979 6.63185 14.9998 6.52018 14.9998H4.16602C3.92991 14.9998 3.73213 14.9198 3.57268 14.7598C3.41324 14.5998 3.33324 14.4021 3.33268 14.1665ZM12.666 6.854L12.0619 6.24984L11.4785 5.6665L12.666 6.854Z" fill="#2B2B2B"/>
</g>
<defs>
<clipPath id="clip0_341_6461">
<rect width="20" height="20" fill="white"/>
</clipPath>
</defs>
</svg>
