<svg width="40" height="40" viewBox="0 0 40 40" fill="none" xmlns="http://www.w3.org/2000/svg">
<rect x="0.5" y="0.5" width="39" height="39" rx="19.5" fill="#F7F7F7"/>
<rect x="0.5" y="0.5" width="39" height="39" rx="19.5" stroke="#ABABAB"/>
<g clip-path="url(#clip0_559_11327)">
<path d="M12 32C11.45 32 10.9793 31.8043 10.588 31.413C10.1967 31.0217 10.0007 30.5507 10 30C9.99934 29.4493 10.1953 28.9787 10.588 28.588C10.9807 28.1973 11.4513 28.0013 12 28H28C28.55 28 29.021 28.196 29.413 28.588C29.805 28.98 30.0007 29.4507 30 30C29.9993 30.5493 29.8037 31.0203 29.413 31.413C29.0223 31.8057 28.5513 32.0013 28 32H12ZM14 24H15.4L23.2 16.225L22.475 15.5L21.775 14.8L14 22.6V24ZM12 25V22.175C12 22.0417 12.025 21.9127 12.075 21.788C12.125 21.6633 12.2 21.5507 12.3 21.45L23.2 10.575C23.3833 10.3917 23.596 10.25 23.838 10.15C24.08 10.05 24.334 10 24.6 10C24.866 10 25.1243 10.05 25.375 10.15C25.6257 10.25 25.8507 10.4 26.05 10.6L27.425 12C27.625 12.1833 27.7707 12.4 27.862 12.65C27.9533 12.9 27.9993 13.1583 28 13.425C28 13.675 27.954 13.921 27.862 14.163C27.77 14.405 27.6243 14.6257 27.425 14.825L16.55 25.7C16.45 25.8 16.3377 25.875 16.213 25.925C16.0883 25.975 15.959 26 15.825 26H13C12.7167 26 12.4793 25.904 12.288 25.712C12.0967 25.52 12.0007 25.2827 12 25ZM23.2 16.225L22.475 15.5L21.775 14.8L23.2 16.225Z" fill="#AD4EF9"/>
</g>
<defs>
<clipPath id="clip0_559_11327">
<rect width="24" height="24" fill="white" transform="translate(8 8)"/>
</clipPath>
</defs>
</svg>
