<svg width="56" height="56" viewBox="0 0 56 56" fill="none" xmlns="http://www.w3.org/2000/svg">
<g filter="url(#filter0_d_426_6907)">
<rect x="8" y="8" width="40" height="40" rx="20" fill="#AD4EF9" shape-rendering="crispEdges"/>
<path fill-rule="evenodd" clip-rule="evenodd" d="M30.4714 22.1953C30.2111 21.9349 29.7889 21.9349 29.5286 22.1953C29.2682 22.4556 29.2682 22.8777 29.5286 23.1381L33.7239 27.3333H20.6667C20.2985 27.3333 20 27.6318 20 28C20 28.3682 20.2985 28.6667 20.6667 28.6667H33.7239L29.5286 32.8619C29.2682 33.1223 29.2682 33.5444 29.5286 33.8047C29.7889 34.0651 30.2111 34.0651 30.4714 33.8047L35.8042 28.4719L35.8047 28.4714M30.4714 22.1953L35.8042 27.5281L30.4714 22.1953ZM35.8047 27.5286C35.8062 27.53 35.8076 27.5315 35.8091 27.533L35.8047 27.5286ZM35.8091 27.533C35.868 27.593 35.9157 27.6641 35.9486 27.7429C35.9169 27.6668 35.8703 27.5954 35.8091 27.533ZM35.9486 28.2571C35.9157 28.3359 35.868 28.407 35.8091 28.467C35.8703 28.4046 35.9169 28.3332 35.9486 28.2571Z" fill="white"/>
</g>
<defs>
<filter id="filter0_d_426_6907" x="0" y="0" width="56" height="56" filterUnits="userSpaceOnUse" color-interpolation-filters="sRGB">
<feFlood flood-opacity="0" result="BackgroundImageFix"/>
<feColorMatrix in="SourceAlpha" type="matrix" values="0 0 0 0 0 0 0 0 0 0 0 0 0 0 0 0 0 0 127 0" result="hardAlpha"/>
<feOffset/>
<feGaussianBlur stdDeviation="4"/>
<feComposite in2="hardAlpha" operator="out"/>
<feColorMatrix type="matrix" values="0 0 0 0 0 0 0 0 0 0 0 0 0 0 0 0 0 0 0.1 0"/>
<feBlend mode="normal" in2="BackgroundImageFix" result="effect1_dropShadow_426_6907"/>
<feBlend mode="normal" in="SourceGraphic" in2="effect1_dropShadow_426_6907" result="shape"/>
</filter>
</defs>
</svg>
