<svg width="24" height="24" viewBox="0 0 24 24" fill="none" xmlns="http://www.w3.org/2000/svg">
<g id="material-symbols:date-range">
<path id="Vector" d="M3.4 24C2.74 24 2.1752 23.7652 1.7056 23.2956C1.236 22.826 1.0008 22.2608 1 21.6V4.8C1 4.14 1.2352 3.5752 1.7056 3.1056C2.176 2.636 2.7408 2.4008 3.4 2.4H4.6V0H7V2.4H16.6V0H19V2.4H20.2C20.86 2.4 21.4252 2.6352 21.8956 3.1056C22.366 3.576 22.6008 4.1408 22.6 4.8V21.6C22.6 22.26 22.3652 22.8252 21.8956 23.2956C21.426 23.766 20.8608 24.0008 20.2 24H3.4ZM3.4 21.6H20.2V9.6H3.4V21.6Z" fill="#7D08D9"/>
</g>
</svg>
