<svg width="24" height="24" viewBox="0 0 24 24" fill="none" xmlns="http://www.w3.org/2000/svg">
<g id="fi_715155" clip-path="url(#clip0_57_947)">
<g id="Group">
<g id="Group_2">
<path id="Vector" d="M21.7476 4.57805C21.2996 2.83836 20.1422 1.74987 18.6236 1.65401C17.775 1.59949 16.958 1.88613 16.3273 2.40823C15.6592 1.40941 14.4112 0.884033 13.2148 0.884033C12.3462 0.884033 11.5346 1.14443 10.9289 1.61787C10.7005 1.79674 10.5054 2.00309 10.3448 2.23231C9.74619 1.74349 8.94833 1.47977 8.06351 1.52177C7.00937 1.57169 5.86829 2.11165 5.2372 3.19864C4.72218 2.88041 4.13812 2.74522 3.54992 2.82425C2.31359 2.99108 1.26527 4.05726 0.673277 5.74956C-0.117089 8.00923 -0.229824 12.274 0.432009 14.8757C0.966576 16.9802 2.53198 17.7706 3.76874 17.6196C4.10441 17.5777 4.44074 17.4612 4.74975 17.2696C5.18339 18.6564 6.48315 19.376 7.77063 19.376C8.60496 19.376 9.44408 19.0832 10.0576 18.5124C10.2014 18.7039 10.369 18.8791 10.5607 19.0337C11.1677 19.5233 11.9768 19.7924 12.8392 19.7924C13.9098 19.7924 14.9882 19.3685 15.6442 18.5446C16.116 19.0308 16.7534 19.3628 17.5125 19.4854C17.7022 19.5162 17.8969 19.5316 18.0945 19.5316C19.5326 19.5316 21.1022 18.71 21.6862 16.952C21.9304 16.2165 22.1461 14.3487 22.2276 12.1899C22.3888 13.6459 22.4646 14.9765 22.4646 15.7826C22.4646 17.2128 21.2112 19.7059 19.4802 20.218C18.8875 20.3936 18.3387 20.57 17.8196 20.7364C16.7567 21.0783 15.8386 21.3737 14.9546 21.5251C13.5752 21.761 13.0394 21.196 12.8309 20.6806C12.6716 20.2875 12.2248 20.0966 11.8309 20.2563C11.4374 20.4148 11.2472 20.8624 11.4061 21.2556C11.5971 21.7277 12.3317 23.1163 14.3489 23.1163C14.6148 23.1163 14.9026 23.0926 15.2146 23.0389C16.2055 22.8683 17.1715 22.558 18.2897 22.199C18.7976 22.0355 19.3355 21.8624 19.9158 21.6911C22.4468 20.9419 24.0001 17.7449 24.0001 15.7827C24 14.4094 23.6047 7.078 21.7476 4.57805ZM20.229 16.4677C19.8171 17.7074 18.6602 18.1138 17.7584 17.969C17.411 17.9133 16.2762 17.6175 16.2762 16.1748C16.2762 16.1721 16.2758 16.1694 16.2757 16.1666V9.66159C16.2757 9.23769 15.9321 8.89367 15.5078 8.89367C15.0835 8.89367 14.7399 9.23727 14.7399 9.66159V16.6524C14.7399 17.7549 13.7544 18.2569 12.8392 18.2569C11.9893 18.2569 10.9968 17.8372 10.9968 16.6524V16.252C10.9968 16.2463 10.9972 16.2409 10.9972 16.2352C10.9972 16.2324 10.9968 16.2297 10.9968 16.2269V9.66159C10.9968 9.23769 10.6532 8.89367 10.2289 8.89367C9.80455 8.89367 9.46096 9.23727 9.46096 9.66159V16.2549C9.45655 16.7502 9.28766 17.1451 8.95845 17.4279C8.65437 17.6896 8.22129 17.8397 7.77119 17.8397C7.01575 17.8397 6.13426 17.4196 6.13426 16.2319L6.10791 10.1346C6.10627 9.71151 5.76263 9.36998 5.34 9.36998C5.33874 9.36998 5.33794 9.36998 5.33667 9.36998C4.91236 9.37166 4.56998 9.7169 4.57209 10.1412L4.5899 14.2861C4.5787 14.3383 4.57251 14.3924 4.57251 14.448C4.57251 15.3878 4.19146 16.0188 3.57786 16.0954C2.99131 16.1686 2.22546 15.6993 1.92054 14.4975C1.32981 12.1758 1.42633 8.24801 2.12271 6.25703C2.51168 5.14632 3.12195 4.43245 3.75552 4.34676C4.1736 4.29061 4.60415 4.52691 4.92947 4.99739C5.10792 5.25488 5.42574 5.37929 5.73029 5.3094C6.03563 5.24077 6.26902 4.9928 6.31932 4.68375C6.5057 3.53891 7.38011 3.09214 8.13598 3.05638C8.78286 3.03017 9.61775 3.29685 9.84449 4.1625C9.94227 4.53605 10.3079 4.77774 10.6852 4.72908C11.0684 4.67958 11.355 4.35342 11.355 3.9674C11.355 3.48112 11.5301 3.09753 11.8749 2.828C12.2073 2.56841 12.6953 2.41948 13.2145 2.41948C13.93 2.41948 15.2836 2.76725 15.2836 4.08304C15.2836 4.45617 15.5515 4.77525 15.9188 4.83975C16.2886 4.90383 16.6468 4.69542 16.7737 4.34512C17.0387 3.61462 17.7642 3.13916 18.5271 3.18697C19.3838 3.24121 20.0246 3.92756 20.2871 5.07085C20.2877 5.07343 20.2885 5.076 20.289 5.07858C20.2897 5.08191 20.2906 5.08514 20.2914 5.08852C21.0793 8.58706 20.6674 15.1486 20.229 16.4677Z" fill="#131313"/>
</g>
</g>
</g>
<defs>
<clipPath id="clip0_57_947">
<rect width="24" height="24" fill="white"/>
</clipPath>
</defs>
</svg>
